<?xml version="1.0" encoding="utf-8"?>
<!-- Generator: Adobe Illustrator 19.1.0, SVG Export Plug-In . SVG Version: 6.00 Build 0)  -->
<svg version="1.1" id="Layer_1" xmlns="http://www.w3.org/2000/svg" xmlns:xlink="http://www.w3.org/1999/xlink" x="0px" y="0px"
	 viewBox="0 0 24.563 24.188" style="enable-background:new 0 0 24.563 24.188;" xml:space="preserve">
<style type="text/css">
	.st0{fill:#FFFFFF;stroke:#000000;stroke-width:0.75;stroke-miterlimit:10;}
	.st1{fill:none;stroke:#000000;stroke-width:0.5;stroke-miterlimit:10;}
	.st2{fill:none;stroke:#000000;stroke-width:0.75;stroke-miterlimit:10;}
</style>
<g>
	<g>
		<g>
			<rect x="3.958" y="9.5" class="st0" width="2.583" height="8.583"/>
			<path class="st0" d="M2.787,8C2.719,8.172,2.679,8.358,2.679,8.555c0,0.831,0.674,1.505,1.505,1.505h2.125
				c0.831,0,1.505-0.674,1.505-1.505c0-0.196-0.04-0.383-0.109-0.555H2.787z"/>
			<path class="st0" d="M7.705,19.75c0.068-0.172,0.109-0.358,0.109-0.555c0-0.831-0.674-1.505-1.505-1.505H4.183
				c-0.831,0-1.505,0.674-1.505,1.505c0,0.196,0.04,0.383,0.109,0.555H7.705z"/>
		</g>
		<g>
			<rect x="11.086" y="9.5" class="st0" width="2.583" height="8.583"/>
			<path class="st0" d="M9.916,8C9.847,8.172,9.807,8.358,9.807,8.555c0,0.831,0.674,1.505,1.505,1.505h2.125
				c0.831,0,1.505-0.674,1.505-1.505c0-0.196-0.04-0.383-0.109-0.555H9.916z"/>
			<path class="st0" d="M14.833,19.75c0.068-0.172,0.109-0.358,0.109-0.555c0-0.831-0.674-1.505-1.505-1.505h-2.125
				c-0.831,0-1.505,0.674-1.505,1.505c0,0.196,0.04,0.383,0.109,0.555H14.833z"/>
		</g>
		<g>
			<rect x="18.215" y="9.5" class="st0" width="2.583" height="8.583"/>
			<path class="st0" d="M17.044,8c-0.068,0.172-0.109,0.358-0.109,0.555c0,0.831,0.674,1.505,1.505,1.505h2.125
				c0.831,0,1.505-0.674,1.505-1.505c0-0.196-0.04-0.383-0.109-0.555H17.044z"/>
			<path class="st0" d="M21.962,19.75c0.068-0.172,0.109-0.358,0.109-0.555c0-0.831-0.674-1.505-1.505-1.505h-2.125
				c-0.831,0-1.505,0.674-1.505,1.505c0,0.196,0.04,0.383,0.109,0.555H21.962z"/>
		</g>
		<line class="st1" x1="5.246" y1="10.06" x2="5.246" y2="17.69"/>
		<line class="st1" x1="12.316" y1="10.06" x2="12.316" y2="17.69"/>
		<line class="st1" x1="19.486" y1="10.06" x2="19.486" y2="17.69"/>
	</g>
	<rect x="2.374" y="19.75" class="st0" width="20" height="1.5"/>
	<polygon class="st2" points="24.166,7.9 0.583,7.9 0.583,6.483 12.383,0.583 24.166,6.483 	"/>
	<ellipse class="st2" cx="12.191" cy="4.45" rx="1.559" ry="1.568"/>
	<g>
		<rect x="0.749" y="21.15" class="st0" width="23.25" height="2.583"/>
		<g>
			<line class="st1" x1="0.791" y1="22.442" x2="3.958" y2="22.442"/>
			<line class="st1" x1="20.791" y1="22.442" x2="23.958" y2="22.442"/>
		</g>
	</g>
</g>
</svg>
