<svg xmlns="http://www.w3.org/2000/svg" xmlns:xlink="http://www.w3.org/1999/xlink" preserveAspectRatio="xMidYMid" width="14.969" height="10.69" viewBox="0 0 14.969 10.69">
  <defs>
    <style>
      .cls-1 {
        fill: #fff;
        filter: url(#color-overlay-1);
        fill-opacity: 0;
        fill-rule: evenodd;
      }
    </style>

    <filter id="color-overlay-1" filterUnits="userSpaceOnUse">
      <feFlood flood-color="#dcdcdc"/>
      <feComposite operator="in" in2="SourceGraphic"/>
      <feBlend in2="SourceGraphic" result="solidFill"/>
    </filter>
  </defs>
  <path d="M9.363,0.140 C8.013,0.562 7.160,1.655 7.257,2.852 L7.289,3.313 L6.749,3.256 C4.784,3.040 3.067,2.306 1.609,1.072 L0.896,0.459 L0.713,0.912 C0.324,1.919 0.573,2.984 1.382,3.699 C1.814,4.095 1.717,4.151 0.972,3.915 C0.713,3.841 0.486,3.784 0.464,3.813 C0.389,3.879 0.648,4.736 0.853,5.075 C1.134,5.546 1.706,6.007 2.333,6.279 L2.862,6.496 L2.236,6.506 C1.631,6.506 1.610,6.515 1.675,6.714 C1.890,7.325 2.743,7.976 3.694,8.259 L4.363,8.456 L3.780,8.758 C2.916,9.192 1.901,9.436 0.886,9.454 C0.399,9.464 0.000,9.502 0.000,9.529 C0.000,9.624 1.318,10.150 2.084,10.359 C4.384,10.970 7.117,10.707 9.168,9.662 C10.626,8.917 12.084,7.439 12.765,6.006 C13.132,5.243 13.499,3.849 13.499,3.182 C13.499,2.747 13.531,2.692 14.136,2.174 C14.492,1.872 14.827,1.543 14.892,1.448 C15.000,1.269 14.989,1.269 14.438,1.429 C13.521,1.713 13.391,1.675 13.845,1.251 C14.179,0.949 14.579,0.403 14.579,0.243 C14.579,0.215 14.417,0.261 14.233,0.347 C14.039,0.441 13.607,0.582 13.283,0.667 L12.700,0.828 L12.171,0.516 C11.879,0.347 11.469,0.158 11.253,0.101 C10.702,-0.030 9.859,-0.011 9.363,0.140 Z" class="cls-1"/>
</svg>
