<?xml version="1.0" encoding="utf-8"?>
<!-- Generator: Adobe Illustrator 19.1.0, SVG Export Plug-In . SVG Version: 6.00 Build 0)  -->
<svg version="1.1" id="Layer_1" xmlns="http://www.w3.org/2000/svg" xmlns:xlink="http://www.w3.org/1999/xlink" x="0px" y="0px"
	 viewBox="0 0 12.801 13.004" style="enable-background:new 0 0 12.801 13.004;" xml:space="preserve">
<g>
	<path d="M6.398,0.208C2.867,0.208,0,3.075,0,6.606c0,3.536,2.867,6.403,6.398,6.403c3.536,0,6.403-2.867,6.403-6.403
		C12.801,3.071,9.934,0.208,6.398,0.208L6.398,0.208z M10.332,8.04C10.289,8.575,9.883,9.255,9.32,9.353
		c-1.812,0.14-3.961,0.121-5.84,0C2.898,9.278,2.512,8.571,2.469,8.04c-0.09-1.117-0.09-1.754,0-2.871
		C2.512,4.634,2.906,3.935,3.48,3.868c1.856-0.156,4.016-0.121,5.84,0c0.649,0.027,0.969,0.695,1.012,1.231
		C10.422,6.216,10.422,6.923,10.332,8.04L10.332,8.04z M10.332,8.04"/>
	<path d="M5.602,8.208L8,6.606L5.602,5.009V8.208z M5.602,8.208"/>
</g>
</svg>
