<?xml version="1.0" encoding="utf-8"?>
<!-- Generator: Adobe Illustrator 19.1.0, SVG Export Plug-In . SVG Version: 6.00 Build 0)  -->
<svg version="1.1" id="Layer_1" xmlns="http://www.w3.org/2000/svg" xmlns:xlink="http://www.w3.org/1999/xlink" x="0px" y="0px"
	 viewBox="0 0 24.893 24.774" style="enable-background:new 0 0 24.893 24.774;" xml:space="preserve">
<style type="text/css">
	.st0{stroke:#000000;stroke-width:0.2;stroke-miterlimit:10;}
</style>
<g>
	<path class="st0" d="M11.291,21.592c-4.472,0-8.109-3.638-8.109-8.109s3.638-8.109,8.109-8.109s8.109,3.638,8.109,8.109
		S15.763,21.592,11.291,21.592z M11.291,6.123c-4.058,0-7.359,3.301-7.359,7.359s3.302,7.359,7.359,7.359s7.359-3.301,7.359-7.359
		S15.349,6.123,11.291,6.123z"/>
	<path class="st0" d="M11.291,18.513c-2.774,0-5.031-2.257-5.031-5.031s2.257-5.031,5.031-5.031s5.031,2.257,5.031,5.031
		S14.066,18.513,11.291,18.513z M11.291,9.202c-2.36,0-4.281,1.92-4.281,4.281s1.921,4.281,4.281,4.281s4.281-1.92,4.281-4.281
		S13.652,9.202,11.291,9.202z"/>
	<path class="st0" d="M11.291,15.024c-0.851,0-1.542-0.691-1.542-1.542s0.691-1.542,1.542-1.542s1.542,0.691,1.542,1.542
		S12.142,15.024,11.291,15.024z M11.291,12.691c-0.437,0-0.792,0.355-0.792,0.792s0.355,0.792,0.792,0.792s0.792-0.355,0.792-0.792
		S11.728,12.691,11.291,12.691z"/>
	<path class="st0" d="M11.725,13.497c-0.096,0-0.191-0.036-0.264-0.109c-0.147-0.146-0.148-0.383-0.003-0.53l9.483-9.556
		c0.147-0.146,0.385-0.148,0.53-0.002c0.147,0.146,0.148,0.383,0.003,0.53l-9.483,9.556C11.917,13.459,11.821,13.497,11.725,13.497z
		"/>
	<path class="st0" d="M21.976,7.75h-4.833V2.833h1.508v-1.25h1.2V0h2.732v2.191h2.31v2.476H23.31v1.457h-1.334V7.75z M17.893,7
		h3.333V5.373h1.334V3.917h1.583V2.941h-2.31V0.75h-1.232v1.583h-1.2v1.25h-1.508V7z"/>
	<path class="st0" d="M20.764,7.375h-0.902c1.234,1.726,1.971,3.829,1.971,6.107c0,5.813-4.729,10.542-10.542,10.542
		S0.75,19.295,0.75,13.482S5.479,2.941,11.291,2.941c2.332,0,4.48,0.774,6.227,2.061V4.087c-1.787-1.191-3.923-1.896-6.227-1.896
		C5.065,2.191,0,7.256,0,13.482s5.065,11.292,11.291,11.292c6.227,0,11.292-5.065,11.292-11.292
		C22.583,11.229,21.907,9.138,20.764,7.375z"/>
</g>
</svg>
