<?xml version="1.0" encoding="utf-8"?>
<!-- Generator: Adobe Illustrator 19.1.0, SVG Export Plug-In . SVG Version: 6.00 Build 0)  -->
<svg version="1.1" id="Layer_1" xmlns="http://www.w3.org/2000/svg" xmlns:xlink="http://www.w3.org/1999/xlink" x="0px" y="0px"
	 viewBox="0 0 232.833 109.694" style="enable-background:new 0 0 232.833 109.694;" xml:space="preserve">
<style type="text/css">
	.st0{fill:#810048;stroke:#810048;stroke-width:0.25;stroke-miterlimit:10;}
	.st1{fill:#810048;}
	.st2{fill:#810048;stroke:#810048;stroke-width:0.1;stroke-miterlimit:10;}
</style>
<g>
	<path class="st0" d="M80.427,16.979c-0.176-0.219-0.431-0.359-0.711-0.388c-0.041-0.004-3.047-0.313-7.233-0.488V1.174
		c0-0.373-0.197-0.717-0.519-0.905c-0.321-0.188-0.718-0.192-1.043-0.01L58.746,7.082c-4.451-2.864-11.024-6.1-17.983-6.1h-1.599
		c-6.959,0-13.531,3.237-17.983,6.1L9.006,0.259c-0.325-0.182-0.722-0.178-1.043,0.01C7.642,0.457,7.444,0.801,7.444,1.174v14.967
		c-3.734,0.178-6.34,0.445-6.379,0.45c-0.572,0.059-0.99,0.569-0.936,1.142c0.072,0.765,1.513,15.305,7.315,24.702v10.705
		c-0.444-0.128-0.728-0.2-0.814-0.221c-0.307-0.076-0.629-0.01-0.881,0.179c-0.252,0.189-0.406,0.481-0.418,0.796
		c-0.038,0.917-0.826,22.596,7.707,35.045c6.661,9.717,14.835,14.838,19.447,17.142c4.094,2.281,7.075,3.358,7.276,3.429
		c0.114,0.041,0.233,0.061,0.351,0.061c0.134,0,0.267-0.026,0.393-0.076c0.191-0.077,2.928-1.199,6.741-3.44
		c4.621-2.317,12.758-7.435,19.393-17.115c1.099-1.604,2.043-3.361,2.854-5.207c2.093-4.141,3.364-8.48,3.678-12.946
		c1.475-8.73,1.198-16.356,1.176-16.891c-0.013-0.315-0.166-0.607-0.418-0.796c-0.252-0.189-0.575-0.254-0.881-0.179
		c-0.068,0.017-0.263,0.066-0.565,0.15v-9.306c2.138-3.148,3.996-7.531,5.552-13.118c1.874-6.725,2.585-12.639,2.614-12.888
		C80.683,17.478,80.602,17.198,80.427,16.979z M9.542,2.964l11.167,6.259c0.343,0.192,0.764,0.177,1.091-0.04
		c3.128-2.068,7.482-4.429,12.269-5.507v7.538c0,0.579,0.47,1.049,1.049,1.049c0.58,0,1.049-0.47,1.049-1.049V3.299
		c0.907-0.125,1.823-0.2,2.747-0.211v11.046c0,0.579,0.47,1.049,1.049,1.049c0.579,0,1.049-0.47,1.049-1.049V3.088
		c0.924,0.011,1.84,0.086,2.747,0.211v7.916c0,0.579,0.469,1.049,1.049,1.049c0.579,0,1.049-0.47,1.049-1.049V3.676
		c4.788,1.079,9.141,3.439,12.269,5.507c0.328,0.217,0.749,0.232,1.092,0.04l11.167-6.259v13.067
		c-1.058-0.028-2.164-0.045-3.298-0.045c-10.013,0-16.785,1.254-20.126,3.727c-2.863,2.119-4.9,4.944-6.058,8.058
		c-0.229,0.417-0.439,0.845-0.628,1.284c-1.035-3.626-3.214-6.944-6.453-9.342c-3.342-2.473-10.113-3.727-20.127-3.727
		c-1.442,0-2.842,0.027-4.152,0.071V2.964z M54.09,47.917c-1.881,0-4.191-0.739-6.017-1.47c-1.171-0.87-2.224-1.925-3.133-3.153
		c-3.23-4.364-3.846-9.868-2.133-14.629c2.22-3.948,6.447-6.624,11.284-6.624c7.134,0,12.938,5.804,12.938,12.938
		C67.028,42.112,61.224,47.917,54.09,47.917z M26.118,47.917c-7.134,0-12.938-5.804-12.938-12.938
		c0-7.134,5.804-12.938,12.938-12.938c6.232,0,11.458,4.441,12.671,10.325c0.385,3.75-0.559,7.656-2.951,10.933
		c-0.704,0.964-1.502,1.827-2.375,2.584C31.562,46.735,28.496,47.917,26.118,47.917z M37.533,44.536
		c1.352-1.852,2.29-3.883,2.842-5.98c0.558,2.101,1.508,4.135,2.878,5.986c0.163,0.22,0.333,0.431,0.504,0.641
		c-0.045,0.042-0.087,0.087-0.125,0.138l-3.529,4.695l-3.365-4.477C37.012,45.215,37.279,44.883,37.533,44.536z M13.695,18.084
		c9.42,0,15.948,1.146,18.878,3.315c0.006,0.004,0.011,0.009,0.017,0.013c-1.962-0.941-4.157-1.47-6.472-1.47
		c-8.291,0-15.036,6.745-15.036,15.036c0,6.988,4.792,12.877,11.261,14.556c-2.953-0.213-5.846-1.236-8.429-2.995
		C5.636,40.902,2.906,23.091,2.339,18.58C4.295,18.412,8.739,18.084,13.695,18.084z M35.576,103.96
		c-0.065,0.449-0.12,0.836-0.164,1.171c-0.448-0.19-0.998-0.436-1.629-0.742c-0.846-0.465-1.743-0.984-2.676-1.558
		c5.983-15.385,0.042-32.76-13.435-43.045c5.554,3.135,11.718,7.989,15.06,15.112C38.106,86.352,36.333,98.691,35.576,103.96z
		 M14.769,87.752C8.195,78.16,7.446,62.165,7.405,56.261c18.722,7.855,28.428,27.946,21.896,45.415
		c-1.43-0.95-2.911-2.022-4.387-3.22c-2.832-2.298-5.385-4.733-7.596-7.3C16.452,90.092,15.598,88.961,14.769,87.752z
		 M44.267,105.131c-0.043-0.335-0.099-0.721-0.164-1.17c-0.757-5.269-2.53-17.608,2.844-29.062
		c3.342-7.122,9.505-11.977,15.06-15.112c-13.461,10.272-19.404,27.618-13.455,42.99c-0.881,0.567-1.727,1.081-2.524,1.546
		C45.342,104.66,44.746,104.928,44.267,105.131z M66.255,85.553c-2.758,4.39-6.53,8.527-11.111,12.382
		c-1.62,1.363-3.244,2.579-4.8,3.65c-6.465-17.447,3.241-37.483,21.93-45.324C72.236,61.734,71.587,75.876,66.255,85.553z
		 M70.385,53.718c-5.8,1.949-19.438,7.716-25.338,20.29c-5.641,12.022-3.805,24.797-3.021,30.252
		c0.113,0.784,0.229,1.59,0.249,1.961c-0.026,0.054-0.045,0.111-0.061,0.169c-0.978,0.487-1.714,0.821-2.125,1
		c-0.488-0.19-1.43-0.575-2.686-1.161c0.019-0.366,0.136-1.179,0.249-1.97c0.784-5.455,2.619-18.229-3.021-30.251
		C28.815,61.611,15.476,55.83,9.542,53.802v-8.455c0.967,1.139,2.027,2.134,3.191,2.927c3.268,2.226,6.991,3.402,10.764,3.402
		c4.144,0,8.016-1.424,11.093-3.996c0.317-0.145,0.6-0.279,0.836-0.394l3.839,5.107c0.198,0.264,0.509,0.419,0.839,0.419
		c0.33,0,0.64-0.155,0.839-0.419l3.839-5.107c0.567,0.277,1.395,0.661,2.367,1.054c2.867,2.014,6.333,3.12,10.031,3.12h0
		c3.738,0,7.483-1.093,10.829-3.16c0.822-0.507,1.614-1.155,2.376-1.935V53.718z M76.007,30.107
		c-2.378,8.525-5.525,14.198-9.101,16.407c-2.561,1.582-5.374,2.528-8.215,2.778c6.046-1.949,10.434-7.627,10.434-14.313
		c0-8.291-6.745-15.036-15.036-15.036c-1.68,0-3.295,0.28-4.805,0.792c3.299-1.737,9.399-2.65,17.802-2.65
		c4.938,0,9.367,0.325,11.335,0.494C78.131,20.588,77.383,25.177,76.007,30.107z"/>
	<path class="st1" d="M26.08,25.782c-5.025,0-9.099,4.074-9.099,9.099s4.074,9.099,9.099,9.099c5.025,0,9.099-4.074,9.099-9.099
		S31.105,25.782,26.08,25.782z M26.08,38.245c-1.858,0-3.364-1.506-3.364-3.363s1.506-3.364,3.364-3.364
		c1.857,0,3.363,1.506,3.363,3.364S27.937,38.245,26.08,38.245z"/>
	<path class="st1" d="M53.908,25.782c-5.025,0-9.099,4.074-9.099,9.099s4.074,9.099,9.099,9.099c5.025,0,9.099-4.074,9.099-9.099
		S58.933,25.782,53.908,25.782z M53.908,38.245c-1.858,0-3.364-1.506-3.364-3.363s1.506-3.364,3.364-3.364
		c1.857,0,3.363,1.506,3.363,3.364S55.765,38.245,53.908,38.245z"/>
	<path class="st0" d="M102.444,26.727h-3.15c-0.217-0.615-0.326-1.185-0.326-1.71c0-0.381,0.095-0.656,0.285-0.828
		c0.19-0.172,0.502-0.258,0.937-0.258h10.86c6.788,0,11.354,0.833,13.698,2.498c2.344,1.665,3.516,4.39,3.516,8.172
		c0,3.928-1.403,6.978-4.209,9.15c-2.806,2.172-7.476,3.258-14.01,3.258h-1.385c0.036,5.576,0.109,9.304,0.217,11.186h4.154
		c0.217,0.543,0.326,1.068,0.326,1.575c0,0.452-0.091,0.769-0.271,0.95c-0.181,0.181-0.498,0.271-0.951,0.271H99.104
		c-0.235-0.615-0.353-1.185-0.353-1.711c0-0.38,0.095-0.656,0.285-0.828c0.19-0.172,0.502-0.258,0.937-0.258h2.471
		c0.145-2.515,0.217-8.968,0.217-19.358C102.661,33.279,102.589,29.243,102.444,26.727z M110.861,43.588
		c3.982,0,6.769-0.57,8.363-1.711c1.593-1.14,2.389-3.068,2.389-5.783c0-2.607-0.751-4.625-2.253-6.055
		c-1.503-1.43-3.965-2.145-7.385-2.145c-1.141,0-2.172,0.091-3.096,0.272c-0.145,1.557-0.217,5.222-0.217,10.996v4.426H110.861z"/>
	<path class="st0" d="M131.955,35.469c0-0.489,0.19-0.801,0.571-0.937c0.38-0.136,2.778-0.276,7.195-0.421
		c0.109,0.833,0.109,1.946,0,3.339c2.009-1.357,3.941-2.298,5.797-2.824c1.855-0.525,3.544-0.787,5.064-0.787
		c0.506,0,0.846,0.059,1.018,0.176c0.172,0.118,0.258,0.376,0.258,0.774c0,0.778-0.123,1.611-0.367,2.498
		c-0.244,0.887-0.538,1.448-0.882,1.683c-0.344,0.236-0.915,0.417-1.711,0.543c-0.796,0.127-1.262,0.154-1.398,0.082
		c-0.135-0.072-0.548-0.57-1.235-1.493c-1.611,0-2.914,0.512-3.91,1.534c-0.995,1.023-1.493,3.082-1.493,6.177
		c0.018,5.557,0.091,9.684,0.217,12.381h3.829c0.217,0.471,0.326,0.977,0.326,1.521c0,0.489-0.1,0.824-0.299,1.005
		c-0.199,0.181-0.58,0.271-1.141,0.271h-11.484c-0.236-0.579-0.354-1.122-0.354-1.629c0-0.398,0.1-0.692,0.299-0.882
		c0.199-0.19,0.525-0.285,0.977-0.285h1.873c0.145-2.697,0.217-6.226,0.217-10.588c0-5.339-0.208-8.435-0.624-9.286
		c-0.417-0.85-1.213-1.276-2.389-1.276C132.072,36.537,131.955,36.012,131.955,35.469z"/>
	<path class="st0" d="M170.87,58.819c-1.52,0.887-3.081,1.561-4.683,2.023c-1.602,0.462-3.173,0.692-4.71,0.692
		c-2.444,0-4.263-0.574-5.458-1.724c-1.195-1.149-1.792-2.855-1.792-5.118c0-2.769,0.986-4.887,2.959-6.353
		c1.973-1.466,5.023-2.199,9.15-2.199h3.991c-0.109-3.185-0.566-5.403-1.371-6.652c-0.805-1.249-2.23-1.873-4.276-1.873
		c-1.086,0-2.127,0.109-3.123,0.326c-0.525,1.05-0.837,1.611-0.936,1.683c-0.1,0.073-0.62,0.231-1.562,0.475
		c-0.941,0.245-1.598,0.2-1.968-0.136c-0.371-0.335-0.751-0.946-1.14-1.833c-0.39-0.887-0.584-1.602-0.584-2.145
		c0-0.362,0.15-0.643,0.448-0.842c0.299-0.199,1.516-0.443,3.652-0.733c2.135-0.289,4.407-0.434,6.815-0.434
		c3.203,0,5.57,0.552,7.1,1.656c1.53,1.104,2.294,3.132,2.294,6.082v8.362c0,3.874,0.167,6.236,0.503,7.086
		c0.335,0.851,0.891,1.195,1.669,1.031c0.217,0.398,0.326,0.788,0.326,1.168c0,0.616-0.384,1.086-1.153,1.412
		c-0.77,0.326-1.806,0.489-3.109,0.489c-0.634,0-1.118-0.077-1.452-0.231C172.123,60.878,171.593,60.141,170.87,58.819z
		 M170.327,49.642c-1.557-0.271-3.168-0.407-4.833-0.407c-2.064,0-3.508,0.344-4.331,1.031c-0.824,0.688-1.236,1.774-1.236,3.258
		c0,1.448,0.367,2.538,1.099,3.272c0.733,0.733,1.869,1.099,3.408,1.099c1.195,0,2.308-0.235,3.34-0.706
		c1.031-0.47,1.714-1.127,2.049-1.968c0.335-0.842,0.503-2.167,0.503-3.978V49.642z"/>
	<path class="st0" d="M199.673,37.451h-1.467c-0.217-0.525-0.326-1.059-0.326-1.602c0-0.543,0.104-0.923,0.312-1.14
		c0.208-0.217,0.548-0.326,1.019-0.326h7.113c0.235,0.507,0.353,1.05,0.353,1.629c0,0.561-0.118,0.941-0.353,1.14
		c-0.235,0.199-0.643,0.299-1.222,0.299h-0.434c-0.67,1.829-2.059,5.883-4.167,12.164c-2.109,6.281-3.475,9.838-4.1,10.67
		c-0.625,0.832-1.598,1.249-2.919,1.249c-2.154,0-3.308-0.1-3.462-0.299c-0.154-0.199-1.222-3.403-3.204-9.611
		c-1.983-6.208-3.191-9.888-3.625-11.037c-0.434-1.149-0.796-1.968-1.086-2.457c-0.29-0.489-0.616-0.792-0.977-0.91
		c-0.362-0.118-0.86-0.176-1.494-0.176c-0.235-0.579-0.353-1.122-0.353-1.629c0-0.543,0.285-0.896,0.855-1.059
		c0.57-0.163,2.141-0.244,4.71-0.244c1.123,0,1.901,0.091,2.335,0.271c0.434,0.181,0.765,0.498,0.991,0.951
		c0.226,0.452,0.498,1.516,0.815,3.19c0.316,1.674,1.231,5.127,2.742,10.358c1.511,5.231,2.353,7.847,2.525,7.847
		c0.172,0,1.059-2.738,2.661-8.213C198.519,43.04,199.438,39.352,199.673,37.451z"/>
	<path class="st0" d="M219.676,61.534c-3.928,0-6.815-1.041-8.661-3.123c-1.846-2.081-2.769-5.221-2.769-9.421
		c0-4.833,1.117-8.589,3.353-11.268c2.235-2.679,5.462-4.018,9.679-4.018c3.928,0,6.814,1.041,8.661,3.122
		c1.846,2.082,2.77,5.231,2.77,9.449c0,4.815-1.118,8.562-3.353,11.24C227.119,60.195,223.893,61.534,219.676,61.534z
		 M220.707,57.896c2.064,0,3.557-0.778,4.48-2.335c0.923-1.556,1.384-3.955,1.384-7.195c0-3.729-0.475-6.498-1.425-8.309
		c-0.95-1.81-2.584-2.715-4.901-2.715c-2.064,0-3.557,0.778-4.48,2.335c-0.923,1.557-1.385,3.964-1.385,7.222
		c0,3.711,0.476,6.471,1.425,8.281C216.757,56.991,218.39,57.896,220.707,57.896z"/>
	<g>
		<path class="st2" d="M105.949,83.876c-0.686,0.4-1.39,0.704-2.112,0.912c-0.723,0.208-1.431,0.312-2.125,0.312
			c-1.102,0-1.922-0.259-2.461-0.777c-0.539-0.518-0.808-1.288-0.808-2.308c0-1.249,0.445-2.204,1.335-2.865
			c0.89-0.661,2.265-0.992,4.126-0.992h1.8c-0.049-1.436-0.255-2.437-0.618-3c-0.363-0.563-1.006-0.845-1.929-0.845
			c-0.49,0-0.959,0.049-1.408,0.147c-0.237,0.474-0.378,0.727-0.423,0.759c-0.045,0.033-0.28,0.104-0.704,0.215
			c-0.425,0.11-0.721,0.09-0.888-0.062c-0.167-0.151-0.339-0.426-0.514-0.826c-0.176-0.4-0.263-0.722-0.263-0.967
			c0-0.163,0.067-0.29,0.202-0.38c0.134-0.09,0.683-0.2,1.647-0.331c0.963-0.131,1.987-0.196,3.073-0.196
			c1.445,0,2.512,0.249,3.202,0.747c0.69,0.498,1.035,1.412,1.035,2.743v3.771c0,1.747,0.075,2.812,0.227,3.196
			c0.151,0.384,0.402,0.539,0.753,0.465c0.098,0.18,0.147,0.355,0.147,0.527c0,0.278-0.174,0.49-0.521,0.637
			c-0.347,0.147-0.814,0.22-1.402,0.22c-0.286,0-0.504-0.035-0.655-0.104C106.514,84.805,106.275,84.473,105.949,83.876z
			 M105.704,79.738c-0.702-0.123-1.429-0.184-2.179-0.184c-0.931,0-1.582,0.155-1.953,0.465c-0.372,0.31-0.557,0.8-0.557,1.469
			c0,0.653,0.165,1.145,0.496,1.475c0.33,0.331,0.842,0.496,1.536,0.496c0.539,0,1.041-0.106,1.506-0.318
			c0.465-0.212,0.773-0.508,0.925-0.888c0.151-0.379,0.226-0.977,0.226-1.794V79.738z"/>
		<path class="st2" d="M120.06,73.958c0.457,0.817,0.686,1.686,0.686,2.608c0,1.38-0.443,2.494-1.329,3.343
			c-0.886,0.849-2.28,1.273-4.181,1.273c-0.857,0-1.412,0.092-1.665,0.276c-0.253,0.183-0.38,0.451-0.38,0.802
			c0,0.425,0.171,0.731,0.514,0.918c0.343,0.188,1.596,0.282,3.759,0.282c2.131,0,3.512,0.219,4.145,0.655
			c0.632,0.437,0.949,1.084,0.949,1.941c0,1.289-0.672,2.31-2.014,3.061c-1.343,0.751-3.422,1.127-6.238,1.127
			c-1.371,0-2.29-0.186-2.755-0.557c-0.465-0.372-0.698-0.892-0.698-1.561c0-0.498,0.131-1.006,0.392-1.524
			c0.261-0.519,0.624-1.019,1.09-1.5c-0.4-0.163-0.721-0.406-0.961-0.728c-0.241-0.323-0.361-0.72-0.361-1.194
			c0-0.49,0.155-0.941,0.465-1.353c0.31-0.412,0.784-0.773,1.42-1.084c-0.523-0.212-0.945-0.592-1.268-1.139
			c-0.322-0.547-0.483-1.261-0.483-2.143c0-1.436,0.441-2.614,1.322-3.533c0.882-0.918,2.208-1.377,3.979-1.377
			c0.98,0,1.881,0.159,2.706,0.478c1.061-0.481,1.694-0.722,1.898-0.722c0.988,0,1.526,0.027,1.616,0.079
			c0.09,0.054,0.135,0.141,0.135,0.263c0,0.212-0.096,0.516-0.288,0.912c-0.192,0.396-0.372,0.594-0.539,0.594
			c-0.168,0-0.708-0.184-1.623-0.551L120.06,73.958z M113.913,85.223c-0.286,0.285-0.504,0.608-0.655,0.967
			c-0.151,0.359-0.227,0.722-0.227,1.09c0,0.555,0.167,0.955,0.502,1.2c0.334,0.245,1.004,0.367,2.008,0.367
			c1.469,0,2.577-0.176,3.325-0.526c0.747-0.351,1.12-0.861,1.12-1.531c0-0.588-0.274-0.996-0.82-1.224
			C118.619,85.337,116.868,85.223,113.913,85.223z M115.897,73.946c-0.776,0-1.351,0.219-1.726,0.655
			c-0.376,0.437-0.563,1.227-0.563,2.369c0,0.98,0.182,1.694,0.545,2.143c0.363,0.449,0.933,0.673,1.708,0.673
			c0.824,0,1.433-0.202,1.824-0.606c0.392-0.404,0.588-1.165,0.588-2.284c0-0.988-0.198-1.726-0.594-2.216
			C117.282,74.191,116.688,73.946,115.897,73.946z"/>
		<path class="st2" d="M128.969,72.55c1.518,0,2.645,0.359,3.379,1.077c0.735,0.718,1.102,1.902,1.102,3.551
			c0,0.727-0.131,1.233-0.392,1.518c-0.262,0.286-0.833,0.428-1.714,0.428h-5.412c0.016,1.331,0.283,2.375,0.802,3.135
			c0.518,0.759,1.434,1.139,2.749,1.139c1.225,0,2.363-0.318,3.416-0.955c0.351,0.351,0.527,0.722,0.527,1.114
			c0,0.547-0.451,0.931-1.353,1.151s-1.921,0.331-3.055,0.331c-2.09,0-3.59-0.443-4.5-1.328c-0.91-0.886-1.365-2.377-1.365-4.476
			c0-2.065,0.512-3.696,1.537-4.892C125.714,73.149,127.14,72.55,128.969,72.55z M128.504,74.191c-0.817,0-1.437,0.292-1.861,0.876
			c-0.425,0.584-0.657,1.496-0.698,2.737h1.261c1.339,0,2.251-0.026,2.737-0.08c0.486-0.053,0.767-0.141,0.845-0.263
			c0.078-0.122,0.117-0.351,0.117-0.686c0-0.808-0.204-1.441-0.612-1.898C129.883,74.42,129.287,74.191,128.504,74.191z"/>
		<path class="st2" d="M138.733,74.179c0.808-0.539,1.606-0.934,2.394-1.188c0.788-0.253,1.492-0.38,2.112-0.38
			c1.086,0,1.904,0.251,2.455,0.753c0.551,0.502,0.826,1.46,0.826,2.872c0,4.392,0.063,6.718,0.19,6.979
			c0.127,0.261,0.418,0.388,0.876,0.38c0.09,0.237,0.134,0.474,0.134,0.71c0,0.22-0.069,0.367-0.208,0.441
			c-0.139,0.074-0.396,0.11-0.772,0.11c-1.135,0-1.828-0.014-2.081-0.043c-0.253-0.029-0.425-0.114-0.514-0.257
			c-0.09-0.142-0.134-0.381-0.134-0.716v-5.277c0-1.681-0.178-2.8-0.533-3.355c-0.355-0.555-0.928-0.833-1.72-0.833
			c-0.678,0-1.264,0.192-1.758,0.575c-0.494,0.384-0.74,1.074-0.74,2.069v2.584c0,1.445,0.028,2.776,0.085,3.992h1.359
			c0.098,0.212,0.147,0.441,0.147,0.686c0,0.22-0.046,0.372-0.135,0.453c-0.09,0.082-0.261,0.122-0.514,0.122h-4.812
			c-0.106-0.261-0.16-0.506-0.16-0.735c0-0.179,0.045-0.312,0.135-0.398c0.09-0.085,0.236-0.128,0.441-0.128h0.845
			c0.065-1.298,0.098-2.89,0.098-4.775c0-2.408-0.094-3.804-0.281-4.188c-0.188-0.383-0.547-0.576-1.077-0.576
			c-0.106-0.228-0.16-0.465-0.16-0.71c0-0.22,0.086-0.361,0.257-0.423c0.171-0.061,1.253-0.124,3.244-0.19
			C138.782,73.11,138.782,73.591,138.733,74.179z"/>
		<path class="st2" d="M154.649,85.101c-2.008,0-3.437-0.423-4.286-1.267c-0.849-0.845-1.273-2.288-1.273-4.329
			c0-2.261,0.535-3.986,1.604-5.173c1.069-1.188,2.697-1.782,4.885-1.782c1.069,0,1.845,0.1,2.326,0.3
			c0.481,0.2,0.726,0.5,0.735,0.9c0,0.49-0.171,0.955-0.514,1.396c-1.224-0.637-2.269-0.955-3.135-0.955
			c-1.135,0-1.941,0.361-2.418,1.083c-0.478,0.723-0.717,1.855-0.717,3.398c0,1.584,0.233,2.778,0.698,3.581
			c0.465,0.804,1.314,1.206,2.547,1.206c0.938,0,2.028-0.314,3.269-0.943c0.269,0.376,0.404,0.759,0.404,1.151
			c0,0.465-0.423,0.82-1.268,1.065C156.663,84.978,155.71,85.101,154.649,85.101z"/>
		<path class="st2" d="M171.164,74.24c-0.392,1.2-1.178,3.722-2.357,7.567c-1.18,3.845-2.053,6.114-2.62,6.808
			c-0.567,0.694-1.208,1.139-1.922,1.335c-0.714,0.196-1.529,0.294-2.443,0.294c-0.89,0-1.468-0.065-1.733-0.196
			c-0.265-0.131-0.397-0.372-0.397-0.722c0-0.433,0.138-0.825,0.416-1.175c1.534,0.31,2.665,0.426,3.391,0.349
			c0.726-0.078,1.449-1.243,2.168-3.496c-0.678-0.024-1.045-0.057-1.102-0.098c-0.057-0.041-0.486-1.416-1.286-4.126
			c-0.8-2.71-1.3-4.365-1.5-4.965c-0.2-0.6-0.359-1.016-0.477-1.249c-0.118-0.232-0.267-0.375-0.447-0.428
			c-0.18-0.053-0.412-0.08-0.698-0.08c-0.106-0.269-0.16-0.518-0.16-0.747c0-0.277,0.139-0.443,0.416-0.496
			c0.278-0.053,0.841-0.08,1.69-0.08c0.653,0,1.094,0.039,1.322,0.116c0.229,0.078,0.388,0.22,0.478,0.429
			c0.09,0.208,0.226,0.786,0.41,1.732c0.183,0.947,0.571,2.524,1.163,4.733c0.592,2.208,0.925,3.312,0.998,3.312
			c0.074,0,0.444-1.271,1.114-3.814c0.67-2.542,1.053-4.21,1.151-5.002h-0.661c-0.098-0.236-0.147-0.478-0.147-0.722
			c0-0.245,0.047-0.416,0.141-0.514c0.094-0.098,0.247-0.147,0.46-0.147h3.453c0.106,0.229,0.159,0.474,0.159,0.735
			c0,0.253-0.053,0.425-0.159,0.514c-0.106,0.09-0.29,0.135-0.551,0.135H171.164z"/>
	</g>
</g>
</svg>
